<?xml version="1.0" encoding="UTF-8" standalone="no"?>
<!DOCTYPE svg PUBLIC "-//W3C//DTD SVG 1.1//EN" "http://www.w3.org/Graphics/SVG/1.1/DTD/svg11.dtd">
<svg version="1.1" xmlns="http://www.w3.org/2000/svg" xmlns:xlink="http://www.w3.org/1999/xlink" preserveAspectRatio="xMidYMid meet" viewBox="0 0 20 20" width="20" height="20"><defs><path d="M13.45 12.94C13.28 12.77 13.18 12.68 13.16 12.66C14.18 11.53 14.8 10.05 14.8 8.44C14.8 4.85 11.76 1.94 8 1.94C4.24 1.94 1.2 4.85 1.2 8.44C1.2 12.03 4.24 14.94 8 14.94C9.69 14.94 11.23 14.34 12.42 13.37C12.44 13.39 12.54 13.48 12.71 13.64L12.71 14.44L17.94 19.43L19.5 17.94L14.28 12.94L14.28 12.94L13.45 12.94ZM3.29 8.44C3.29 5.95 5.4 3.94 8 3.94C10.6 3.94 12.71 5.95 12.71 8.44C12.71 10.92 10.6 12.94 8 12.94C8 12.94 8 12.94 8 12.94C4.86 11.59 3.29 10.09 3.29 8.44Z" id="c1cJAg74nA"></path></defs><g><g><g><g></g><use xlink:href="#c1cJAg74nA" opacity="1" fill="#325af1" fill-opacity="1"></use><g><use xlink:href="#c1cJAg74nA" opacity="1" fill-opacity="0" stroke="#000000" stroke-width="1" stroke-opacity="0"></use></g><g><filter id="shadow621843" x="-23.8" y="-23.06" width="88.3" height="67.49" filterUnits="userSpaceOnUse" primitiveUnits="userSpaceOnUse"><feFlood></feFlood><feComposite in2="SourceAlpha" operator="out"></feComposite><feGaussianBlur stdDeviation="0"></feGaussianBlur><feOffset dx="-20" dy="0" result="afterOffset"></feOffset><feFlood flood-color="#000000" flood-opacity="0.5"></feFlood><feComposite in2="afterOffset" operator="in"></feComposite><feMorphology operator="dilate" radius="0"></feMorphology><feComposite in2="SourceAlpha" operator="in"></feComposite></filter><path d="M13.45 12.94C13.28 12.77 13.18 12.68 13.16 12.66C14.18 11.53 14.8 10.05 14.8 8.44C14.8 4.85 11.76 1.94 8 1.94C4.24 1.94 1.2 4.85 1.2 8.44C1.2 12.03 4.24 14.94 8 14.94C9.69 14.94 11.23 14.34 12.42 13.37C12.44 13.39 12.54 13.48 12.71 13.64L12.71 14.44L17.94 19.43L19.5 17.94L14.28 12.94L14.28 12.94L13.45 12.94ZM3.29 8.44C3.29 5.95 5.4 3.94 8 3.94C10.6 3.94 12.71 5.95 12.71 8.44C12.71 10.92 10.6 12.94 8 12.94C8 12.94 8 12.94 8 12.94C4.86 11.59 3.29 10.09 3.29 8.44Z" id="a1Abd66Kop" fill="white" fill-opacity="1" filter="url(#shadow621843)"></path></g></g></g></g></svg>